<svg width="40" height="40" viewBox="0 0 40 40" fill="none" xmlns="http://www.w3.org/2000/svg">
<path d="M16.7556 13.0556H20.0667V23.3667C20.0667 23.9333 19.9611 24.4389 19.75 24.8778C19.5389 25.3222 19.2611 25.6889 18.9111 25.9889C18.5611 26.2889 18.1556 26.5222 17.7 26.6889C17.2389 26.8556 16.7722 26.9389 16.2889 26.9389H4.02222C3.52222 26.9389 3.05 26.8556 2.6 26.6889C2.15 26.5222 1.75 26.2889 1.4 25.9889C1.05 25.6889 0.772224 25.3167 0.561112 24.8778C0.350001 24.4389 0.244446 23.9333 0.244446 23.3667V21.1667H3.55556C3.55556 21.9111 3.70556 22.45 4.01111 22.7833C4.31667 23.1167 4.83889 23.2889 5.58333 23.2889H14.7278C15.4722 23.2889 16 23.1111 16.3 22.7611C16.6056 22.4056 16.7556 21.8778 16.7556 21.1722V13.0556Z" fill="#A3E635"/>
<path d="M23.4056 21.7222C22.9556 21.7222 22.5167 21.6444 22.1 21.4944C21.6778 21.3444 21.3111 21.1278 20.9945 20.8444C20.6778 20.5611 20.4167 20.2278 20.2222 19.85C20.0278 19.4722 19.9333 19.05 19.9333 18.5889V16.6278C19.9333 16.0778 20.0389 15.5778 20.25 15.1278C20.4611 14.6778 20.7389 14.3 21.0889 14C21.4389 13.7 21.8389 13.4667 22.2889 13.3C22.7389 13.1333 23.2111 13.05 23.7111 13.05H39.7556V16.6833H23.2445V18.2778H36.2778C36.7278 18.2778 37.1611 18.3556 37.5834 18.5056C38.0056 18.6556 38.3722 18.8722 38.6889 19.1556C39.0056 19.4389 39.2611 19.7722 39.4611 20.15C39.6556 20.5278 39.75 20.95 39.75 21.4111V23.3722C39.75 23.9389 39.6445 24.4444 39.4333 24.8833C39.2222 25.3278 38.9445 25.6944 38.5945 25.9944C38.2445 26.2944 37.8389 26.5278 37.3834 26.6944C36.9222 26.8611 36.4556 26.9444 35.9722 26.9444H19.9333V23.3111H36.4445V21.7222H23.4056Z" fill="#A3E635"/>
</svg>
