<svg width="50" height="50" viewBox="0 0 50 50" fill="none" xmlns="http://www.w3.org/2000/svg">
<path d="M21.8819 18.4305H25.0139V28.1805C25.0139 28.7153 24.9166 29.1944 24.7153 29.6111C24.5139 30.0278 24.25 30.3819 23.9236 30.6667C23.5903 30.9514 23.2083 31.1736 22.7778 31.3333C22.3472 31.493 21.8958 31.5694 21.4444 31.5694H9.8472C9.37498 31.5694 8.93054 31.493 8.49998 31.3333C8.07637 31.1736 7.69442 30.9514 7.36109 30.6667C7.02776 30.3819 6.76387 30.0347 6.56942 29.6111C6.36803 29.1944 6.27081 28.7153 6.27081 28.1805V26.0972H9.40276C9.40276 26.7986 9.54859 27.3055 9.83331 27.625C10.118 27.9444 10.618 28.1042 11.3194 28.1042H19.9653C20.6736 28.1042 21.1666 27.9375 21.4514 27.6042C21.7361 27.2708 21.8819 26.7708 21.8819 26.0972V18.4305Z" fill="#A3E635"/>
<path d="M28.1736 26.632C27.75 26.632 27.3333 26.5625 26.9375 26.4167C26.5417 26.2778 26.1945 26.0695 25.8889 25.8056C25.5903 25.5417 25.3472 25.2222 25.1597 24.8681C24.9792 24.507 24.882 24.1111 24.882 23.6806V21.8264C24.882 21.3056 24.9792 20.8333 25.1806 20.4097C25.382 19.9861 25.6458 19.632 25.9722 19.3472C26.3056 19.0625 26.6806 18.8403 27.1111 18.6806C27.5347 18.5208 27.9861 18.4445 28.4583 18.4445H43.632V21.882H28.0139V23.3889H40.3472C40.7708 23.3889 41.1875 23.4583 41.5833 23.6042C41.9792 23.7431 42.3264 23.9514 42.632 24.2153C42.9306 24.4861 43.1736 24.7986 43.3611 25.1528C43.5417 25.5139 43.6389 25.9097 43.6389 26.3403V28.1945C43.6389 28.7292 43.5417 29.2083 43.3403 29.625C43.1389 30.0417 42.875 30.3958 42.5486 30.6806C42.2153 30.9653 41.8333 31.1875 41.4028 31.3472C40.9722 31.507 40.5208 31.5833 40.0695 31.5833H24.882V28.1458H40.4931V26.6389H28.1736V26.632Z" fill="#A3E635"/>
</svg>
